<svg width="20" height="23" viewBox="0 0 20 23" fill="none" xmlns="http://www.w3.org/2000/svg">
<path d="M19.0829 17.7579L13.1429 9.59014V1.64298H14.7857V0.00012207H4.92857V1.64298H6.57143V9.59014L0.631345 17.7579C0.273205 18.2504 0.0582542 18.8323 0.0102678 19.4393C-0.0377187 20.0463 0.0831298 20.6547 0.359446 21.1973C0.635762 21.7399 1.05678 22.1954 1.57592 22.5136C2.09506 22.8318 2.6921 23.0002 3.30099 23.0001H9.85714H16.4133C17.0222 23.0002 17.6192 22.8318 18.1384 22.5136C18.6575 22.1954 19.0785 21.7399 19.3548 21.1973C19.6312 20.6547 19.752 20.0463 19.704 19.4393C19.656 18.8323 19.4411 18.2504 19.0829 17.7579ZM8.21428 10.1244V1.64298H11.5V10.1244L13.6955 13.143H6.01877L8.21428 10.1244ZM16.4133 21.3573H3.30099C2.99514 21.3572 2.69528 21.2725 2.43454 21.1127C2.1738 20.9528 1.96234 20.7239 1.82353 20.4514C1.68473 20.1789 1.62398 19.8733 1.64801 19.5684C1.67203 19.2634 1.7799 18.9711 1.95968 18.7237L4.82392 14.7858H14.8904L17.7546 18.7237C17.9344 18.9711 18.0423 19.2634 18.0663 19.5684C18.0903 19.8733 18.0296 20.1789 17.8908 20.4514C17.7519 20.7239 17.5405 20.9528 17.2797 21.1127C17.019 21.2725 16.7191 21.3572 16.4133 21.3573Z" fill="black"/>
<path d="M8.07235 18.577L9.82561 20.2598" stroke="black"/>
<path d="M9.38241 20.2062L12.1697 17.8815" stroke="black"/>
<circle cx="3.70694" cy="19.8408" r="0.252747" fill="black"/>
<circle cx="15.8388" cy="19.8408" r="0.252747" fill="black"/>
<circle cx="14.4908" cy="17.8188" r="0.252747" fill="black"/>
<circle cx="11.7949" cy="16.1339" r="0.252747" fill="black"/>
<circle cx="5.05493" cy="17.8188" r="0.252747" fill="black"/>
<circle cx="7.75092" cy="16.1339" r="0.252747" fill="black"/>
</svg>
