<svg width="350" height="459" viewBox="0 0 350 459" fill="none" xmlns="http://www.w3.org/2000/svg">
<g clip-path="url(#clip0_272_2)">
<path d="M249.669 134.087L182.876 112.247L150.477 67.4342L159.74 60.7361L153.043 51.4722L97.4615 91.6605L104.16 100.925L113.423 94.2267L145.823 139.04L145.628 209.316C145.616 213.552 146.777 217.71 148.981 221.328C151.185 224.947 154.347 227.885 158.117 229.818C161.887 231.751 166.118 232.604 170.342 232.282C174.567 231.959 178.62 230.474 182.053 227.991L219.021 201.261L255.989 174.531C259.422 172.049 262.102 168.665 263.732 164.755C265.362 160.844 265.879 156.558 265.225 152.372C264.571 148.186 262.772 144.262 260.026 141.035C257.281 137.808 253.697 135.403 249.669 134.087ZM157.264 135.355L122.686 87.5288L141.213 74.1322L175.791 121.958L200.477 130.028L157.191 161.327L157.264 135.355ZM249.29 165.268L175.355 218.728C173.63 219.974 171.595 220.719 169.473 220.88C167.351 221.043 165.225 220.614 163.332 219.643C161.437 218.672 159.849 217.197 158.742 215.379C157.634 213.562 157.05 211.474 157.055 209.345L157.151 175.463L213.913 134.421L246.117 144.948C248.14 145.611 249.939 146.819 251.318 148.441C252.696 150.062 253.6 152.032 253.929 154.136C254.257 156.238 253.998 158.391 253.179 160.355C252.361 162.32 251.015 164.02 249.29 165.268Z" fill="black"/>
<path d="M190.925 183.597L207.671 185.937" stroke="black" stroke-width="6"/>
<path d="M204.953 187.442L211.192 162.968" stroke="black" stroke-width="6"/>
<path d="M172.492 209.946C173.279 209.377 173.456 208.278 172.887 207.491C172.318 206.704 171.218 206.527 170.431 207.096C169.644 207.665 169.467 208.765 170.036 209.552C170.605 210.339 171.705 210.515 172.492 209.946Z" fill="black"/>
<path d="M240.9 160.483C241.687 159.914 241.864 158.815 241.294 158.028C240.725 157.241 239.626 157.064 238.839 157.633C238.052 158.202 237.875 159.302 238.444 160.089C239.013 160.876 240.113 161.053 240.9 160.483Z" fill="black"/>
<path d="M225.055 154.577C225.842 154.008 226.019 152.909 225.45 152.122C224.881 151.334 223.781 151.158 222.994 151.727C222.207 152.296 222.03 153.395 222.599 154.183C223.169 154.97 224.268 155.146 225.055 154.577Z" fill="black"/>
<path d="M202.984 156.068C203.771 155.499 203.948 154.399 203.379 153.612C202.81 152.825 201.711 152.648 200.924 153.218C200.136 153.787 199.96 154.886 200.529 155.673C201.098 156.46 202.197 156.637 202.984 156.068Z" fill="black"/>
<path d="M171.849 193.048C172.636 192.479 172.813 191.38 172.244 190.593C171.675 189.806 170.576 189.629 169.789 190.198C169.001 190.767 168.825 191.867 169.394 192.654C169.963 193.441 171.062 193.618 171.849 193.048Z" fill="black"/>
<path d="M180.182 172.556C180.969 171.987 181.146 170.888 180.577 170.101C180.008 169.313 178.908 169.137 178.121 169.706C177.334 170.275 177.157 171.374 177.726 172.162C178.296 172.949 179.395 173.125 180.182 172.556Z" fill="black"/>
<path d="M253.419 238.798C252.406 240.353 251.165 241.666 249.7 242.741C248.246 243.796 246.765 244.611 245.258 245.183C243.762 245.737 242.359 246.048 241.049 246.116C239.75 246.165 238.749 245.96 238.047 245.502C237.751 245.309 237.488 245.045 237.258 244.71C237.058 244.369 237.055 244.05 237.249 243.754C237.333 243.625 237.454 243.52 237.613 243.438C237.771 243.357 237.979 243.281 238.236 243.212C238.492 243.142 238.804 243.068 239.17 242.991C239.568 242.907 240.026 242.811 240.546 242.702C241.096 242.586 241.696 242.437 242.343 242.252C243.009 242.08 243.675 241.869 244.34 241.617C245.006 241.365 245.646 241.071 246.261 240.735C246.876 240.398 247.412 240.022 247.868 239.607C246.876 239.751 245.926 239.672 245.017 239.368C244.107 239.065 243.356 238.72 242.764 238.333C242.006 237.838 241.368 237.238 240.853 236.532C240.368 235.82 240.035 235.037 239.856 234.18C239.688 233.306 239.7 232.378 239.893 231.396C240.116 230.407 240.565 229.395 241.241 228.359C241.832 227.453 242.53 226.707 243.333 226.124C244.136 225.54 244.993 225.136 245.903 224.913C246.845 224.683 247.803 224.65 248.778 224.811C249.773 224.985 250.741 225.38 251.685 225.995C252.61 226.599 253.414 227.308 254.095 228.123C254.777 228.937 255.237 229.87 255.474 230.921C255.73 231.985 255.708 233.17 255.408 234.478C255.108 235.786 254.446 237.226 253.419 238.798ZM251.306 235.125C252.103 233.904 252.413 232.722 252.236 231.578C252.078 230.446 251.361 229.464 250.084 228.631C249.622 228.329 249.123 228.122 248.59 228.011C248.067 227.881 247.525 227.884 246.963 228.018C246.413 228.134 245.861 228.393 245.307 228.797C244.784 229.194 244.282 229.763 243.799 230.503C243.497 230.965 243.296 231.454 243.198 231.969C243.117 232.497 243.132 233.021 243.241 233.541C243.38 234.054 243.603 234.542 243.907 235.004C244.243 235.461 244.678 235.864 245.215 236.214C246.399 236.987 247.535 237.267 248.624 237.054C249.712 236.841 250.606 236.198 251.306 235.125Z" fill="#009090"/>
<path d="M76.5278 147.514C75.4827 145.981 74.7517 144.341 74.3354 142.593C73.9067 140.827 73.7238 139.147 73.7873 137.553C73.8377 135.941 74.0897 134.527 74.5425 133.309C74.9836 132.073 75.5504 131.218 76.2441 130.745C76.5361 130.547 76.8778 130.42 77.2692 130.367C77.6668 130.284 77.9651 130.388 78.1639 130.68C78.3378 130.935 78.3848 131.318 78.3047 131.827C78.2115 132.318 78.0665 133.085 77.8684 134.129C77.7642 134.682 77.6634 135.298 77.5661 135.979C77.4874 136.648 77.4363 137.338 77.4128 138.049C77.39 138.76 77.4156 139.464 77.4901 140.162C77.5647 140.859 77.7062 141.498 77.914 142.078C78.1618 141.107 78.6001 140.26 79.2297 139.537C79.8593 138.814 80.4661 138.253 81.0501 137.855C81.7804 137.357 82.5763 137.015 83.4378 136.828C84.2876 136.623 85.1484 136.611 86.0203 136.792C86.8797 136.955 87.7226 137.329 88.5496 137.915C89.3828 138.47 90.147 139.258 90.8442 140.28C91.4537 141.174 91.8672 142.095 92.0854 143.043C92.2911 143.972 92.307 144.896 92.133 145.817C91.9646 146.708 91.6028 147.569 91.0478 148.402C90.4983 149.204 89.7583 149.923 88.8278 150.557C87.9152 151.18 86.955 151.673 85.9478 152.039C84.9469 152.374 83.928 152.468 82.8904 152.319C81.8536 152.171 80.8015 151.725 79.7343 150.983C78.6664 150.24 77.5978 149.084 76.5278 147.514ZM80.7311 146.975C81.5519 148.179 82.4845 148.88 83.5283 149.078C84.59 149.263 85.7504 148.926 87.0095 148.067C87.4658 147.756 87.8607 147.394 88.1934 146.98C88.5261 146.565 88.7567 146.101 88.8865 145.585C89.0031 145.05 88.9852 144.475 88.8319 143.858C88.6966 143.228 88.3798 142.548 87.8828 141.818C87.5714 141.362 87.1876 140.995 86.7313 140.718C86.2937 140.429 85.8104 140.25 85.283 140.182C84.7612 140.083 84.2255 140.101 83.6753 140.235C83.1134 140.351 82.5763 140.583 82.0655 140.932C80.8975 141.728 80.2024 142.67 79.9808 143.757C79.7592 144.843 80.0091 145.916 80.7311 146.975Z" fill="#009090"/>
<path d="M238.45 12.5426C237.766 12.3638 237.308 12.0616 237.077 11.6358C236.851 11.1887 236.786 10.7835 236.881 10.4202C236.981 10.0355 237.243 9.77311 237.668 9.63299C238.098 9.47148 238.629 9.40487 239.262 9.43303C239.899 9.43987 240.608 9.52242 241.389 9.68076C242.175 9.81777 242.963 9.98963 243.754 10.1963C244.416 10.3695 245.145 10.5942 245.94 10.8706C246.742 11.1256 247.467 11.4522 248.116 11.8502C248.771 12.2269 249.281 12.6797 249.645 13.2086C250.015 13.7162 250.111 14.312 249.932 14.9958C249.792 15.5301 249.444 16.0327 248.887 16.5036C248.331 16.9744 247.719 17.3965 247.05 17.7698C246.382 18.1431 245.728 18.4628 245.087 18.7293C244.474 18.9799 244.028 19.16 243.748 19.2694C246.014 19.8616 247.511 20.8581 248.241 22.2589C248.972 23.6597 249.061 25.4179 248.508 27.5336C248.162 28.8587 247.615 29.9485 246.867 30.8031C246.14 31.6633 245.284 32.3184 244.299 32.7687C243.341 33.2032 242.296 33.4438 241.166 33.4906C240.056 33.5431 238.956 33.4269 237.866 33.1419C236.968 32.9073 236.101 32.6007 235.264 32.2221C234.448 31.8491 233.745 31.3915 233.157 30.8494C232.573 30.286 232.149 29.6386 231.883 28.9071C231.644 28.1598 231.648 27.316 231.893 26.3757C232.15 25.3926 232.812 25.0407 233.881 25.32C234.202 25.4038 234.425 25.5535 234.552 25.7692C234.705 25.969 234.815 26.2033 234.882 26.4719C234.976 26.7247 235.061 27.0096 235.138 27.3265C235.215 27.6435 235.362 27.9558 235.578 28.2634C235.822 28.5554 236.156 28.8483 236.582 29.1422C237.034 29.4202 237.656 29.6626 238.446 29.8692C239.066 30.0312 239.692 30.1263 240.324 30.1545C240.961 30.1613 241.557 30.0659 242.111 29.8683C242.665 29.6706 243.151 29.3409 243.568 28.8792C244.012 28.4018 244.34 27.757 244.552 26.9449C244.965 25.3634 244.927 24.1549 244.437 23.3192C243.969 22.4891 243.147 21.9205 241.972 21.6132C241.672 21.535 241.381 21.5158 241.097 21.5557C240.818 21.5741 240.533 21.6139 240.243 21.6752C239.959 21.715 239.664 21.752 239.358 21.7862C239.058 21.7991 238.737 21.7608 238.395 21.6714C238.053 21.5821 237.793 21.3543 237.615 20.988C237.442 20.6005 237.42 20.1609 237.548 19.6694C237.637 19.3274 237.9 18.974 238.339 18.609C238.798 18.2495 239.391 17.8567 240.118 17.4305C240.867 17.0099 241.748 16.5666 242.76 16.1005C243.778 15.6132 244.906 15.0975 246.143 14.5535C245.929 14.4976 245.673 14.4306 245.374 14.3524C245.096 14.2798 244.805 14.2151 244.5 14.1582C244.222 14.0856 243.945 14.013 243.667 13.9404C243.389 13.8677 243.154 13.8063 242.961 13.7561C242.149 13.5437 241.348 13.3343 240.557 13.1276C239.793 12.9051 239.09 12.7101 238.45 12.5426Z" fill="#009090"/>
<path d="M82.6233 427.946C82.2043 427.268 81.7783 426.557 81.3469 425.811C80.9348 425.055 80.4819 424.245 79.987 423.383C79.492 422.52 78.9701 421.585 78.4207 420.577C77.8601 419.548 77.2368 418.404 76.5506 417.144L74.5694 413.506L73.3151 415.359C72.999 415.934 72.7111 416.33 72.4522 416.546C72.212 416.752 71.9276 416.945 71.5976 417.125C71.3063 417.284 70.9763 417.3 70.6056 417.175C70.255 417.039 69.9851 416.796 69.7945 416.447C69.6047 416.098 69.5571 415.734 69.6523 415.354C69.7566 414.946 69.9153 414.545 70.1293 414.152C70.3972 413.628 70.6947 413.089 71.0212 412.534C71.3671 411.968 71.7095 411.442 72.0484 410.956C72.3763 410.45 72.6973 410.024 73.0114 409.677C73.3344 409.3 73.6313 409.037 73.9033 408.889C74.0386 408.815 74.1849 408.761 74.3423 408.726C74.5183 408.68 74.6964 408.683 74.8766 408.737C75.0754 408.779 75.2825 408.905 75.4972 409.115C75.7215 409.295 75.9535 409.583 76.1951 409.98C76.6141 410.657 76.9758 411.252 77.281 411.765C77.5854 412.278 77.885 412.782 78.179 413.276C78.4628 413.75 78.752 414.258 79.0482 414.802C79.3436 415.345 79.6874 415.975 80.0781 416.693C80.5537 417.566 81.0079 418.4 81.4408 419.195C81.8743 419.991 82.2926 420.781 82.6957 421.568C83.0989 422.354 83.5076 423.151 83.9211 423.956C84.3352 424.762 84.7605 425.612 85.1967 426.506C85.4308 426.982 85.5778 427.367 85.6379 427.662C85.7165 427.946 85.7352 428.187 85.6931 428.387C85.6503 428.585 85.5571 428.737 85.4121 428.841C85.2975 428.954 85.1436 429.063 84.9496 429.169C84.6003 429.359 84.2455 429.401 83.8865 429.295C83.5158 429.17 83.0948 428.72 82.6233 427.946ZM86.3309 405.477C85.6323 405.858 85.0925 406.252 84.7115 406.661C84.32 407.05 84.0322 407.446 83.8486 407.848C83.6649 408.249 83.5448 408.63 83.4882 408.987C83.451 409.334 83.4088 409.672 83.3612 410C83.3329 410.317 83.2639 410.606 83.1541 410.867C83.0533 411.098 82.8676 411.288 82.5957 411.435C82.1304 411.689 81.7369 411.752 81.4166 411.625C81.1046 411.468 80.8374 411.186 80.6158 410.778C80.1506 409.925 80.0381 408.955 80.2762 407.87C80.3439 407.531 80.4736 407.146 80.6655 406.714C80.8671 406.252 81.1426 405.788 81.4919 405.321C81.8605 404.844 82.3182 404.368 82.8649 403.894C83.4206 403.39 84.0957 402.921 84.8909 402.488C87.0054 401.337 88.9244 400.958 90.6488 401.352C92.3725 401.746 93.7414 402.874 94.7555 404.736C94.9564 405.105 95.1393 405.533 95.305 406.021C95.49 406.499 95.617 407.033 95.6874 407.624C95.7771 408.204 95.7992 408.846 95.755 409.549C95.7109 410.252 95.5645 411.023 95.3174 411.863C95.0965 412.612 94.8252 413.338 94.5042 414.041C94.1832 414.744 93.8422 415.458 93.4825 416.182C93.1222 416.907 92.7487 417.676 92.3622 418.49C91.9846 419.274 91.6339 420.132 91.3108 421.063C92.1116 421.054 92.8965 420.903 93.6675 420.609C94.4379 420.315 95.2691 419.925 96.1616 419.439C96.9955 418.984 97.6541 418.601 98.1373 418.287C98.6205 417.973 99.0016 417.703 99.2805 417.476C99.5594 417.248 99.7754 417.068 99.9287 416.934C100.082 416.8 100.256 416.68 100.45 416.575C101.168 416.183 101.706 416.318 102.065 416.977C102.382 417.559 102.383 418.137 102.067 418.712C101.751 419.287 101.295 419.836 100.701 420.361C100.096 420.867 99.4399 421.325 98.733 421.736C98.0365 422.165 97.4553 422.507 96.99 422.761C96.7381 422.898 96.368 423.074 95.8814 423.289C95.4251 423.512 94.9136 423.728 94.3475 423.936C93.7814 424.144 93.1899 424.327 92.5727 424.488C91.9646 424.618 91.3743 424.688 90.8014 424.698C90.2367 424.679 89.7238 424.568 89.262 424.367C88.7898 424.146 88.4164 423.784 88.1416 423.28C87.7723 422.6 87.666 421.828 87.8234 420.963C87.9897 420.067 88.2824 419.128 88.7028 418.144C89.1122 417.141 89.5857 416.116 90.1221 415.07C90.6481 414.004 91.1106 412.959 91.5096 411.937C91.8983 410.896 92.1496 409.903 92.2648 408.96C92.3994 408.006 92.2503 407.132 91.8168 406.337C91.2784 405.348 90.537 404.795 89.594 404.68C88.66 404.535 87.5721 404.801 86.3309 405.477Z" fill="#009090"/>
<path d="M78.9833 336.531C107.945 336.531 131.639 312.835 131.639 283.872C131.639 254.91 107.945 231.214 78.9833 231.214C50.0229 231.214 26.3279 254.91 26.3279 283.872C26.3279 312.835 50.0229 336.531 78.9833 336.531ZM78.9833 218.049C115.185 218.049 144.803 247.67 144.803 283.872C144.803 320.075 115.185 349.695 78.9833 349.695C42.7828 349.695 13.1639 320.075 13.1639 283.872C13.1639 247.67 42.7828 218.049 78.9833 218.049ZM111.893 296.379L107.286 304.936L72.4018 285.847V250.961H82.2747V279.923L111.893 296.379Z" fill="black"/>
<path d="M241.779 385.969C260.75 385.969 276.27 370.447 276.27 351.476C276.27 332.506 260.75 316.985 241.779 316.985C222.81 316.985 207.289 332.506 207.289 351.476C207.289 370.447 222.81 385.969 241.779 385.969ZM241.779 308.361C265.492 308.361 284.893 327.763 284.893 351.476C284.893 375.19 265.492 394.592 241.779 394.592C218.067 394.592 198.666 375.19 198.666 351.476C198.666 327.763 218.067 308.361 241.779 308.361ZM263.336 359.669L260.318 365.273L237.468 352.77V329.919H243.935V348.889L263.336 359.669Z" fill="black"/>
<mask id="mask0_272_2" style="mask-type:luminance" maskUnits="userSpaceOnUse" x="135" y="244" width="215" height="215">
<path d="M349.988 330.064L221.058 244.896L135.894 373.831L264.823 459L349.988 330.064Z" fill="white"/>
</mask>
<g mask="url(#mask0_272_2)">
<path d="M306.35 307.026L259.373 275.993L231.158 305.143C219.465 308.071 209.293 315.275 202.65 325.333C196.006 335.391 193.372 347.574 195.268 359.479L179.531 396.87L226.508 427.904L254.723 398.754C266.416 395.826 276.588 388.622 283.231 378.563C289.875 368.505 292.509 356.322 290.613 344.417L306.35 307.026ZM260.737 288.469L294.34 310.667L286.085 330.284C282.301 322.734 276.601 316.311 269.555 311.656C262.509 307.002 254.365 304.28 245.936 303.762L260.737 288.469ZM225.143 415.427L191.541 393.229L199.796 373.612C203.58 381.162 209.279 387.585 216.325 392.24C223.371 396.894 231.516 399.617 239.944 400.134L225.143 415.427ZM221.649 384.182C215.274 379.971 210.291 373.964 207.33 366.921C204.369 359.877 203.563 352.114 205.014 344.612C206.464 337.111 210.107 330.208 215.481 324.777C220.855 319.346 227.718 315.63 235.204 314.1C242.689 312.57 250.46 313.293 257.534 316.179C264.609 319.066 270.667 323.986 274.946 330.316C279.224 336.647 281.529 344.103 281.569 351.744C281.61 359.384 279.384 366.865 275.173 373.24C269.518 381.78 260.708 387.728 250.673 389.779C240.64 391.83 230.201 389.818 221.649 384.182Z" fill="black"/>
</g>
</g>
<defs>
<clipPath id="clip0_272_2">
<rect width="349.987" height="459" fill="white"/>
</clipPath>
</defs>
</svg>
