<svg width="18" height="25" viewBox="0 0 18 25" fill="none" xmlns="http://www.w3.org/2000/svg">
<g clip-path="url(#clip0_287_4)">
<path d="M11.8516 12.5L16.7378 7.61377C17.3374 7.01416 17.3374 6.04199 16.7378 5.44189L15.6519 4.35596C15.0522 3.75635 14.0801 3.75635 13.48 4.35596L8.59375 9.24219L3.70752 4.35596C3.10791 3.75635 2.13574 3.75635 1.53564 4.35596L0.449707 5.44189C-0.149902 6.0415 -0.149902 7.01367 0.449707 7.61377L5.33594 12.5L0.449707 17.3862C-0.149902 17.9858 -0.149902 18.958 0.449707 19.5581L1.53564 20.644C2.13525 21.2437 3.10791 21.2437 3.70752 20.644L8.59375 15.7578L13.48 20.644C14.0796 21.2437 15.0522 21.2437 15.6519 20.644L16.7378 19.5581C17.3374 18.9585 17.3374 17.9863 16.7378 17.3862L11.8516 12.5Z" fill="#FF0000"/>
</g>
<defs>
<clipPath id="clip0_287_4">
<rect width="17.1875" height="25" fill="white"/>
</clipPath>
</defs>
</svg>
