<svg width="50" height="50" viewBox="0 0 50 50" fill="none" xmlns="http://www.w3.org/2000/svg">
<g clip-path="url(#clip0_92_2)">
<path fill-rule="evenodd" clip-rule="evenodd" d="M0 0H50V50H0V0ZM26.0811 18.7616C23.842 19.6928 19.367 21.6205 12.6561 24.5442C11.5664 24.9775 10.9955 25.4016 10.9436 25.8161C10.8557 26.5166 11.733 26.7925 12.9277 27.1681C13.0902 27.2192 13.2586 27.2722 13.4312 27.3283C14.6066 27.7103 16.1877 28.1573 17.0097 28.1752C17.7552 28.1913 18.5873 27.8839 19.5061 27.253C25.7763 23.0205 29.013 20.8811 29.2161 20.835C29.3595 20.8025 29.5581 20.7616 29.6928 20.8811C29.8273 21.0008 29.8142 21.2273 29.7998 21.2881C29.713 21.6586 26.2692 24.8603 24.487 26.5172C23.9314 27.0336 23.5373 27.4 23.4569 27.4837C23.2764 27.6712 23.0923 27.8484 22.9156 28.0189C21.8238 29.0716 21.0048 29.8609 22.9609 31.15C23.9011 31.7695 24.6533 32.2817 25.4037 32.7928C26.2233 33.3509 27.0406 33.9077 28.0983 34.6009C28.3678 34.7775 28.6252 34.9609 28.8758 35.1397C29.8295 35.8197 30.6864 36.4305 31.745 36.3331C32.3602 36.2766 32.9956 35.6981 33.3183 33.973C34.0809 29.8961 35.58 21.0627 35.9264 17.4227C35.9567 17.1038 35.9186 16.6955 35.888 16.5164C35.8572 16.3372 35.7931 16.0819 35.5603 15.893C35.2844 15.6692 34.8586 15.622 34.6683 15.6252C33.8023 15.6406 32.4741 16.1025 26.0811 18.7616Z" fill="white"/>
</g>
<defs>
<clipPath id="clip0_92_2">
<rect width="50" height="50" rx="10" fill="white"/>
</clipPath>
</defs>
</svg>
