<svg width="50" height="50" viewBox="0 0 50 50" fill="none" xmlns="http://www.w3.org/2000/svg">
<g clip-path="url(#clip0_87_142)">
<path d="M0 0V50H50V0H0ZM22.1954 13.3698C23.6111 13.3551 24.9958 13.512 25.6714 13.5315C28.1755 13.6036 28.6178 14.8701 28.5858 15.9119C28.5389 17.4376 27.5573 23.8915 29.3762 24.5209C32.0266 23.1036 33.8039 18.7018 35.0982 15.9119C35.753 14.5007 35.6494 14.4306 37.1581 14.4287L43.1518 14.4195C44.5952 14.4178 44.5388 14.3671 45.0012 14.9567C46.0766 16.3278 41.6076 22.0314 40.1641 23.6084C37.5004 26.5187 39.0545 27.6457 39.4836 28.0457C41.4715 29.8991 43.3923 31.8211 44.5862 33.5938C45.5353 35.003 45.1432 36.3151 43.9361 36.3648L37.5091 36.6302C35.3763 36.7179 32.0601 32.8948 31.5308 32.0618C31.1027 31.3747 29.0395 30.5135 28.8452 32.2692L28.5735 34.7197C28.3763 36.4715 27.0829 36.4306 26.062 36.4745C18.9925 36.7787 16.5849 34.0871 13.0248 30.1146C10.4156 26.4246 7.92567 22.7134 5.86238 18.2677C5.24479 16.9369 4.91767 15.9607 4.83392 14.926C5.87208 14.1146 9.51613 14.4641 11.9628 14.4103C12.632 14.3955 13.0836 14.779 13.4368 15.5425C14.8152 18.5222 16.3185 21.4482 18.3075 24.0355C19.1737 24.8333 19.9394 25.1267 20.3216 23.5045C20.5435 23.4841 20.5257 20.7977 20.5383 18.7712C20.5469 17.3798 20.3835 15.7112 18.0267 14.9412C18.5034 13.6917 20.3752 13.3886 22.1954 13.3698Z" fill="white"/>
</g>
<defs>
<clipPath id="clip0_87_142">
<rect width="50" height="50" rx="10" fill="white"/>
</clipPath>
</defs>
</svg>
