<svg width="115" height="24" viewBox="0 0 115 24" fill="none" xmlns="http://www.w3.org/2000/svg">
<path d="M114.373 17.7578L108.469 9.59002V1.64286H110.102V0H100.306V1.64286H101.938V9.59002L96.0349 17.7578C95.6789 18.2502 95.4653 18.8321 95.4176 19.4391C95.3699 20.0461 95.49 20.6546 95.7646 21.1972C96.0392 21.7397 96.4577 22.1953 96.9736 22.5135C97.4895 22.8317 98.0829 23.0001 98.688 23H105.204H111.719C112.325 23.0001 112.918 22.8317 113.434 22.5135C113.95 22.1953 114.368 21.7397 114.643 21.1972C114.917 20.6546 115.037 20.0461 114.99 19.4391C114.942 18.8321 114.728 18.2502 114.373 17.7578ZM103.571 10.1243V1.64286H106.836V10.1243L109.018 13.1429H101.389L103.571 10.1243ZM111.719 21.3572H98.688C98.3841 21.3571 98.086 21.2724 97.8269 21.1125C97.5678 20.9527 97.3576 20.7238 97.2197 20.4513C97.0817 20.1787 97.0214 19.8731 97.0452 19.5682C97.0691 19.2633 97.1763 18.971 97.355 18.7236L100.202 14.7857H110.206L113.052 18.7236C113.231 18.971 113.338 19.2633 113.362 19.5682C113.386 19.8731 113.326 20.1787 113.188 20.4513C113.05 20.7238 112.84 20.9527 112.58 21.1125C112.321 21.2724 112.023 21.3571 111.719 21.3572Z" fill="white"/>
<path d="M103.43 18.577L105.172 20.2598" stroke="white"/>
<path d="M104.732 20.2061L107.502 17.8813" stroke="white"/>
<ellipse cx="99.0915" cy="19.8406" rx="0.251187" ry="0.252747" fill="white"/>
<ellipse cx="111.148" cy="19.8406" rx="0.251187" ry="0.252747" fill="white"/>
<ellipse cx="109.809" cy="17.8187" rx="0.251187" ry="0.252747" fill="white"/>
<ellipse cx="107.129" cy="16.1336" rx="0.251187" ry="0.252747" fill="white"/>
<ellipse cx="100.431" cy="17.8187" rx="0.251187" ry="0.252747" fill="white"/>
<ellipse cx="103.11" cy="16.1336" rx="0.251187" ry="0.252747" fill="white"/>
<path d="M10.776 8.408C10.328 8.44 9.848 8.464 9.336 8.48C8.84 8.496 8.288 8.512 7.68 8.528C7.696 8.96 7.712 9.368 7.728 9.752C7.744 10.12 7.76 10.496 7.776 10.88C7.792 11.264 7.8 11.664 7.8 12.08C7.816 12.496 7.824 12.96 7.824 13.472C7.824 14.192 7.824 14.888 7.824 15.56C7.824 16.216 7.816 16.88 7.8 17.552C7.784 18.208 7.768 18.872 7.752 19.544C7.736 20.216 7.712 20.912 7.68 21.632C7.664 22.016 7.624 22.312 7.56 22.52C7.512 22.728 7.44 22.888 7.344 23C7.248 23.112 7.136 23.176 7.008 23.192C6.88 23.224 6.736 23.24 6.576 23.24C6.288 23.24 6.04 23.144 5.832 22.952C5.64 22.744 5.528 22.312 5.496 21.656C5.464 21.08 5.44 20.472 5.424 19.832C5.424 19.192 5.416 18.504 5.4 17.768C5.384 17.032 5.376 16.24 5.376 15.392C5.376 14.528 5.376 13.576 5.376 12.536C5.376 11.656 5.376 10.888 5.376 10.232C5.392 9.576 5.416 9.008 5.448 8.528H4.464C3.792 8.528 3.216 8.52 2.736 8.504C2.272 8.488 1.888 8.448 1.584 8.384C1.28 8.304 1.056 8.184 0.912 8.024C0.784 7.864 0.72 7.64 0.72 7.352C0.72 7.208 0.736 7.08 0.768 6.968C0.8 6.84 0.872 6.728 0.984 6.632C1.096 6.52 1.248 6.432 1.44 6.368C1.648 6.304 1.912 6.256 2.232 6.224C2.536 6.208 2.808 6.192 3.048 6.176C3.288 6.16 3.528 6.144 3.768 6.128C4.008 6.112 4.256 6.104 4.512 6.104C4.768 6.104 5.064 6.104 5.4 6.104C6.344 6.104 7.232 6.112 8.064 6.128C8.912 6.144 9.808 6.176 10.752 6.224C11.136 6.256 11.432 6.304 11.64 6.368C11.848 6.416 12.008 6.488 12.12 6.584C12.232 6.68 12.296 6.792 12.312 6.92C12.344 7.048 12.36 7.192 12.36 7.352C12.36 7.64 12.256 7.88 12.048 8.072C11.856 8.264 11.432 8.376 10.776 8.408ZM14.2414 21.512C14.2094 20.92 14.1774 20.248 14.1454 19.496C14.1294 18.728 14.1214 17.888 14.1214 16.976C14.1214 15.84 14.1294 14.872 14.1454 14.072C14.1614 13.256 14.2014 12.592 14.2654 12.08C14.3454 11.552 14.4654 11.168 14.6254 10.928C14.7854 10.672 15.0094 10.544 15.2974 10.544C15.5694 10.544 15.8094 10.64 16.0174 10.832C16.2254 11.024 16.3454 11.44 16.3774 12.08C16.4734 13.76 16.5214 15.384 16.5214 16.952C16.5214 17.752 16.5054 18.504 16.4734 19.208C16.4414 19.896 16.4094 20.656 16.3774 21.488C16.3614 21.872 16.3214 22.168 16.2574 22.376C16.2094 22.584 16.1374 22.744 16.0414 22.856C15.9454 22.968 15.8334 23.032 15.7054 23.048C15.5934 23.08 15.4574 23.096 15.2974 23.096C15.0094 23.096 14.7694 23 14.5774 22.808C14.3854 22.6 14.2734 22.168 14.2414 21.512ZM15.3214 6.2C15.6894 6.2 16.0254 6.344 16.3294 6.632C16.6494 6.92 16.8094 7.264 16.8094 7.664C16.8094 8.048 16.6494 8.384 16.3294 8.672C16.0094 8.944 15.6494 9.08 15.2494 9.08C14.9134 9.08 14.5934 8.944 14.2894 8.672C14.0014 8.384 13.8574 8.032 13.8574 7.616C13.8574 7.232 14.0014 6.904 14.2894 6.632C14.5934 6.344 14.9374 6.2 15.3214 6.2ZM35.6634 22.28C35.5674 22.008 35.5034 21.704 35.4714 21.368C35.4554 21.032 35.4474 20.616 35.4474 20.12C35.4474 19.768 35.4474 19.496 35.4474 19.304C35.4634 19.096 35.4714 18.92 35.4714 18.776C35.4714 18.616 35.4714 18.464 35.4714 18.32C35.4874 18.16 35.4954 17.944 35.4954 17.672C35.4954 17.112 35.4794 16.552 35.4474 15.992C35.4314 15.416 35.3514 14.904 35.2074 14.456C35.0634 13.992 34.8394 13.616 34.5354 13.328C34.2314 13.04 33.7914 12.896 33.2154 12.896C32.2394 12.896 31.4794 13.36 30.9354 14.288C30.3914 15.216 30.0634 16.696 29.9514 18.728C29.9194 19.368 29.9034 19.952 29.9034 20.48C29.9034 21.008 29.8714 21.464 29.8074 21.848C29.7434 22.216 29.6234 22.504 29.4474 22.712C29.2874 22.92 29.0154 23.024 28.6314 23.024C28.2794 23.024 28.0234 22.936 27.8634 22.76C27.7034 22.568 27.5834 22.288 27.5034 21.92C27.4394 21.552 27.3994 21.104 27.3834 20.576C27.3834 20.048 27.3594 19.432 27.3114 18.728C27.2634 17.96 27.1834 17.224 27.0714 16.52C26.9754 15.816 26.8074 15.2 26.5674 14.672C26.3434 14.128 26.0314 13.696 25.6314 13.376C25.2474 13.056 24.7514 12.896 24.1434 12.896C23.5674 12.896 23.1194 13.04 22.7994 13.328C22.4954 13.6 22.2714 13.968 22.1274 14.432C21.9834 14.88 21.8954 15.392 21.8634 15.968C21.8474 16.528 21.8394 17.096 21.8394 17.672C21.8394 17.96 21.8394 18.176 21.8394 18.32C21.8554 18.448 21.8634 18.568 21.8634 18.68C21.8634 18.792 21.8634 18.936 21.8634 19.112C21.8794 19.288 21.8874 19.56 21.8874 19.928C21.8874 20.456 21.8714 20.912 21.8394 21.296C21.8234 21.68 21.7674 22.008 21.6714 22.28C21.5594 22.6 21.4074 22.8 21.2154 22.88C21.0234 22.944 20.8474 22.976 20.6874 22.976C20.1914 22.976 19.8714 22.8 19.7274 22.448C19.5834 22.096 19.5034 21.584 19.4874 20.912C19.4874 20.544 19.4794 20.136 19.4634 19.688C19.4634 19.224 19.4634 18.664 19.4634 18.008C19.4634 17.688 19.4634 17.408 19.4634 17.168C19.4634 16.928 19.4634 16.696 19.4634 16.472C19.4794 16.248 19.4874 16.024 19.4874 15.8C19.5034 15.56 19.5194 15.288 19.5354 14.984C19.5834 14.008 19.7594 13.232 20.0634 12.656C20.3674 12.064 20.7274 11.616 21.1434 11.312C21.5594 11.008 22.0074 10.816 22.4874 10.736C22.9674 10.64 23.4074 10.592 23.8074 10.592C24.6714 10.592 25.3994 10.72 25.9914 10.976C26.5834 11.232 27.0634 11.568 27.4314 11.984C27.8154 12.4 28.0954 12.872 28.2714 13.4C28.4634 13.928 28.5914 14.464 28.6554 15.008C28.7194 14.48 28.8474 13.96 29.0394 13.448C29.2474 12.92 29.5434 12.456 29.9274 12.056C30.3274 11.64 30.8394 11.304 31.4634 11.048C32.0874 10.792 32.8554 10.664 33.7674 10.664C34.1994 10.664 34.6394 10.712 35.0874 10.808C35.5514 10.888 35.9754 11.08 36.3594 11.384C36.7434 11.688 37.0634 12.128 37.3194 12.704C37.5914 13.264 37.7514 14.024 37.7994 14.984C37.8154 15.288 37.8234 15.56 37.8234 15.8C37.8394 16.024 37.8474 16.248 37.8474 16.472C37.8634 16.696 37.8714 16.928 37.8714 17.168C37.8714 17.408 37.8714 17.688 37.8714 18.008C37.8714 18.664 37.8634 19.224 37.8474 19.688C37.8474 20.136 37.8474 20.544 37.8474 20.912C37.8474 21.216 37.8314 21.496 37.7994 21.752C37.7834 22.008 37.7354 22.224 37.6554 22.4C37.5754 22.576 37.4554 22.72 37.2954 22.832C37.1514 22.928 36.9354 22.976 36.6474 22.976C36.3754 22.976 36.1674 22.928 36.0234 22.832C35.8794 22.72 35.7594 22.536 35.6634 22.28ZM46.2189 18.584C45.6589 18.584 45.0669 18.544 44.4429 18.464C43.8349 18.368 43.1709 18.176 42.4509 17.888C42.5949 18.864 42.9949 19.6 43.6509 20.096C44.3229 20.592 45.2829 20.84 46.5309 20.84C46.9789 20.84 47.3789 20.816 47.7309 20.768C48.0989 20.704 48.4189 20.64 48.6909 20.576C48.9629 20.496 49.2029 20.432 49.4109 20.384C49.6189 20.32 49.8109 20.288 49.9869 20.288C50.2109 20.288 50.4269 20.36 50.6349 20.504C50.8429 20.632 50.9469 20.856 50.9469 21.176C50.9469 21.576 50.7789 21.904 50.4429 22.16C50.1229 22.416 49.7229 22.624 49.2429 22.784C48.7789 22.928 48.2829 23.024 47.7549 23.072C47.2269 23.136 46.7629 23.168 46.3629 23.168C45.4189 23.168 44.5469 23.04 43.7469 22.784C42.9629 22.528 42.2829 22.144 41.7069 21.632C41.1309 21.104 40.6829 20.456 40.3629 19.688C40.0429 18.92 39.8829 18.024 39.8829 17C39.8829 16.008 40.0349 15.128 40.3389 14.36C40.6589 13.592 41.0909 12.944 41.6349 12.416C42.1789 11.888 42.8189 11.488 43.5549 11.216C44.3069 10.944 45.1149 10.808 45.9789 10.808C46.6509 10.808 47.2989 10.896 47.9229 11.072C48.5629 11.248 49.1229 11.512 49.6029 11.864C50.0989 12.216 50.4909 12.664 50.7789 13.208C51.0829 13.736 51.2349 14.36 51.2349 15.08C51.2349 15.72 51.1149 16.264 50.8749 16.712C50.6349 17.16 50.2909 17.52 49.8429 17.792C49.4109 18.064 48.8829 18.264 48.2589 18.392C47.6509 18.52 46.9709 18.584 46.2189 18.584ZM46.0509 13.016C45.6189 13.016 45.2029 13.072 44.8029 13.184C44.4029 13.28 44.0349 13.448 43.6989 13.688C43.3789 13.912 43.1069 14.216 42.8829 14.6C42.6589 14.968 42.5069 15.432 42.4269 15.992C43.0349 16.264 43.6269 16.456 44.2029 16.568C44.7789 16.664 45.3869 16.712 46.0269 16.712C46.9709 16.712 47.6669 16.6 48.1149 16.376C48.5789 16.136 48.8109 15.712 48.8109 15.104C48.8109 14.544 48.5949 14.056 48.1629 13.64C47.7469 13.224 47.0429 13.016 46.0509 13.016ZM55.8947 16.304C55.8947 16.816 55.8947 17.272 55.8947 17.672C55.8947 18.056 55.8867 18.424 55.8707 18.776C55.8707 19.128 55.8627 19.48 55.8467 19.832C55.8307 20.184 55.8147 20.576 55.7987 21.008C56.9027 20.88 57.7667 20.776 58.3907 20.696C59.0147 20.616 59.5027 20.552 59.8547 20.504C60.2227 20.456 60.5027 20.424 60.6947 20.408C60.9027 20.392 61.1427 20.384 61.4147 20.384C62.1187 20.384 62.4707 20.728 62.4707 21.416C62.4707 21.688 62.3267 21.92 62.0387 22.112C61.7667 22.304 61.4147 22.472 60.9827 22.616C60.5667 22.744 60.0947 22.856 59.5667 22.952C59.0547 23.032 58.5507 23.088 58.0547 23.12C57.5747 23.168 57.1347 23.2 56.7347 23.216C56.3507 23.232 56.0787 23.24 55.9187 23.24C55.3427 23.24 54.8947 23.2 54.5747 23.12C54.2547 23.056 54.0147 22.848 53.8547 22.496C53.6947 22.128 53.5907 21.576 53.5427 20.84C53.5107 20.104 53.4947 19.064 53.4947 17.72C53.4947 16.424 53.4947 15.272 53.4947 14.264C53.4947 13.256 53.5027 12.352 53.5187 11.552C53.5347 10.752 53.5427 10.04 53.5427 9.416C53.5587 8.792 53.5827 8.224 53.6147 7.712C53.6467 7.056 53.7587 6.632 53.9507 6.44C54.1427 6.232 54.3827 6.128 54.6707 6.128C54.8307 6.128 54.9667 6.144 55.0787 6.176C55.2067 6.192 55.3187 6.256 55.4147 6.368C55.5107 6.48 55.5827 6.64 55.6307 6.848C55.6947 7.056 55.7347 7.352 55.7507 7.736C55.8147 9.144 55.8547 10.536 55.8707 11.912C55.8867 13.288 55.8947 14.752 55.8947 16.304ZM73.7884 23.096C73.5324 23.096 73.3244 23.056 73.1644 22.976C73.0204 22.88 72.9084 22.76 72.8284 22.616C72.7484 22.472 72.6924 22.304 72.6604 22.112C72.6284 21.904 72.6044 21.688 72.5884 21.464C72.1884 21.96 71.6684 22.376 71.0284 22.712C70.4044 23.048 69.6044 23.216 68.6284 23.216C68.0044 23.216 67.3644 23.128 66.7084 22.952C66.0684 22.76 65.4844 22.44 64.9564 21.992C64.4284 21.528 63.9964 20.912 63.6604 20.144C63.3244 19.376 63.1564 18.408 63.1564 17.24C63.1564 16.328 63.2684 15.472 63.4924 14.672C63.7164 13.872 64.0524 13.176 64.5004 12.584C64.9644 11.976 65.5404 11.496 66.2284 11.144C66.9164 10.792 67.7244 10.616 68.6524 10.616C69.4684 10.616 70.1964 10.768 70.8364 11.072C71.4764 11.36 72.0524 11.84 72.5644 12.512C72.5644 12.32 72.5724 12.128 72.5884 11.936C72.6044 11.728 72.6444 11.544 72.7084 11.384C72.7884 11.208 72.9084 11.072 73.0684 10.976C73.2284 10.864 73.4444 10.808 73.7164 10.808C73.9564 10.808 74.1804 10.904 74.3884 11.096C74.5964 11.288 74.7164 11.704 74.7484 12.344C74.7964 13.192 74.8284 13.952 74.8444 14.624C74.8764 15.296 74.8924 15.992 74.8924 16.712C74.8924 17.592 74.8844 18.4 74.8684 19.136C74.8524 19.872 74.8124 20.656 74.7484 21.488C74.7164 21.856 74.6684 22.152 74.6044 22.376C74.5564 22.584 74.4924 22.744 74.4124 22.856C74.3324 22.952 74.2364 23.016 74.1244 23.048C74.0124 23.08 73.9004 23.096 73.7884 23.096ZM72.4924 17C72.4924 16.168 72.3644 15.488 72.1084 14.96C71.8684 14.432 71.5564 14.024 71.1724 13.736C70.8044 13.432 70.4044 13.224 69.9724 13.112C69.5404 13 69.1404 12.944 68.7724 12.944C68.1964 12.944 67.7004 13.048 67.2844 13.256C66.8844 13.464 66.5564 13.752 66.3004 14.12C66.0444 14.472 65.8524 14.896 65.7244 15.392C65.6124 15.872 65.5564 16.4 65.5564 16.976C65.5564 18.384 65.8604 19.424 66.4684 20.096C67.0924 20.768 67.9324 21.104 68.9884 21.104C69.6124 21.104 70.1404 21 70.5724 20.792C71.0204 20.568 71.3804 20.272 71.6524 19.904C71.9404 19.536 72.1484 19.104 72.2764 18.608C72.4204 18.096 72.4924 17.56 72.4924 17ZM80.3462 7.304C80.3462 8.264 80.3142 9.272 80.2502 10.328C80.2022 11.368 80.1382 12.384 80.0582 13.376C80.2662 12.944 80.5382 12.576 80.8742 12.272C81.2102 11.952 81.5782 11.696 81.9782 11.504C82.3942 11.312 82.8262 11.168 83.2742 11.072C83.7222 10.976 84.1542 10.928 84.5702 10.928C85.2902 10.928 85.9622 11.064 86.5862 11.336C87.2262 11.592 87.7782 11.976 88.2422 12.488C88.7222 12.984 89.0902 13.608 89.3462 14.36C89.6182 15.096 89.7542 15.944 89.7542 16.904C89.7542 17.832 89.6182 18.68 89.3462 19.448C89.0742 20.216 88.6662 20.88 88.1222 21.44C87.5942 21.984 86.9302 22.408 86.1302 22.712C85.3462 23.016 84.4422 23.168 83.4182 23.168C82.0262 23.168 80.9302 22.888 80.1302 22.328C79.3462 21.768 78.7622 21.024 78.3782 20.096C77.9942 19.152 77.7542 18.072 77.6582 16.856C77.5782 15.64 77.5382 14.368 77.5382 13.04C77.5382 11.696 77.5622 10.48 77.6102 9.392C77.6582 8.304 77.7302 7.424 77.8262 6.752C77.9222 6.144 78.0822 5.712 78.3062 5.456C78.5302 5.2 78.8262 5.072 79.1942 5.072C79.4662 5.072 79.6822 5.136 79.8422 5.264C80.0022 5.376 80.1142 5.536 80.1782 5.744C80.2582 5.952 80.3062 6.192 80.3222 6.464C80.3382 6.72 80.3462 7 80.3462 7.304ZM83.8982 13.304C83.4342 13.304 82.9862 13.384 82.5542 13.544C82.1382 13.688 81.7622 13.92 81.4262 14.24C81.1062 14.56 80.8502 14.968 80.6582 15.464C80.4662 15.944 80.3702 16.528 80.3702 17.216C80.3702 18.432 80.6662 19.36 81.2582 20C81.8662 20.624 82.6742 20.936 83.6822 20.936C84.0982 20.936 84.5222 20.88 84.9542 20.768C85.3862 20.64 85.7782 20.432 86.1302 20.144C86.4822 19.84 86.7702 19.44 86.9942 18.944C87.2182 18.448 87.3302 17.832 87.3302 17.096C87.3302 16.44 87.2342 15.872 87.0422 15.392C86.8662 14.912 86.6182 14.52 86.2982 14.216C85.9782 13.896 85.6102 13.664 85.1942 13.52C84.7782 13.376 84.3462 13.304 83.8982 13.304Z" fill="white"/>
</svg>
