<svg width="25" height="25" viewBox="0 0 25 25" fill="none" xmlns="http://www.w3.org/2000/svg">
<path fill-rule="evenodd" clip-rule="evenodd" d="M3.21582 6.71582C3.21582 5.88739 3.88739 5.21582 4.71582 5.21582H20.7158C21.5442 5.21582 22.2158 5.88739 22.2158 6.71582C22.2158 7.54425 21.5442 8.21582 20.7158 8.21582H4.71582C3.88739 8.21582 3.21582 7.54425 3.21582 6.71582ZM3.21582 12.7158C3.21582 11.8874 3.88739 11.2158 4.71582 11.2158H20.7158C21.5442 11.2158 22.2158 11.8874 22.2158 12.7158C22.2158 13.5442 21.5442 14.2158 20.7158 14.2158H4.71582C3.88739 14.2158 3.21582 13.5442 3.21582 12.7158ZM3.21582 18.7158C3.21582 17.8874 3.88739 17.2158 4.71582 17.2158H20.7158C21.5442 17.2158 22.2158 17.8874 22.2158 18.7158C22.2158 19.5442 21.5442 20.2158 20.7158 20.2158H4.71582C3.88739 20.2158 3.21582 19.5442 3.21582 18.7158Z" fill="black"/>
</svg>
